<svg xmlns="http://www.w3.org/2000/svg" xmlns:xlink="http://www.w3.org/1999/xlink" viewBox="0 0 634 634"><defs><style>.cls-1{fill:#fff;}.cls-2{fill:url(#radial-gradient);}</style><radialGradient id="radial-gradient" cx="519.5" cy="65.43" r="620.6" gradientUnits="userSpaceOnUse"><stop offset="0.23" stop-color="#ff2ce0"/><stop offset="0.3" stop-color="#f92be1"/><stop offset="0.4" stop-color="#e92ae3"/><stop offset="0.51" stop-color="#cd27e6"/><stop offset="0.62" stop-color="#a724eb"/><stop offset="0.75" stop-color="#771ff1"/><stop offset="0.88" stop-color="#3c1af8"/><stop offset="1" stop-color="#0014ff"/></radialGradient></defs><title>Asset 4</title><g id="Layer_2" data-name="Layer 2"><g id="Layer_1-2" data-name="Layer 1"><path class="cls-1" d="M467,175H412a24,24,0,0,0-24,24h0a24,24,0,0,0,24,24h1a24,24,0,0,1,24,24v46a24,24,0,0,1-24,24h-1a24,24,0,0,0-24,24h0a24,24,0,0,0,24,24h55a24,24,0,0,0,24-24V199A24,24,0,0,0,467,175Z"/><circle class="cls-1" cx="351" cy="199" r="24"/><circle class="cls-1" cx="351" cy="341" r="24"/><path class="cls-1" d="M351,232a24,24,0,0,0-24,24v28a24,24,0,0,0,48,0V256A24,24,0,0,0,351,232Z"/><path class="cls-1" d="M351,377a24,24,0,0,0-24,24v60a24,24,0,0,0,48,0V401A24,24,0,0,0,351,377Z"/><path class="cls-1" d="M280,175H166a24,24,0,0,0-24,24V341a24,24,0,0,0,24,24H280a24,24,0,0,0,24-24h0a24,24,0,0,0-24-24H220a24,24,0,0,1-24-24V247a24,24,0,0,1,24-24h60a24,24,0,0,0,24-24h0A24,24,0,0,0,280,175Z"/><rect class="cls-1" x="142" y="437" width="162" height="48" rx="24"/><circle class="cls-1" cx="166" cy="401" r="24"/><path class="cls-2" d="M317,0C141.93,0,0,141.93,0,317S141.93,634,317,634,634,492.07,634,317,492.07,0,317,0ZM302,461a24,24,0,0,1-24,24H164a24,24,0,0,1-24-24h0a24,24,0,0,1,24-24H278a24,24,0,0,1,24,24ZM140,401a24,24,0,1,1,24,24A24,24,0,0,1,140,401ZM302,199a24,24,0,0,1-24,24H218a24,24,0,0,0-24,24v46a24,24,0,0,0,24,24h60a24,24,0,0,1,24,24h0a24,24,0,0,1-24,24H164a24,24,0,0,1-24-24V199a24,24,0,0,1,24-24H278a24,24,0,0,1,24,24Zm71,262a24,24,0,0,1-48,0V401a24,24,0,0,1,48,0Zm-24-96a24,24,0,1,1,24-24A24,24,0,0,1,349,365Zm24-81a24,24,0,0,1-48,0V256a24,24,0,0,1,48,0Zm-24-61a24,24,0,1,1,24-24A24,24,0,0,1,349,223ZM489,341a24,24,0,0,1-24,24H410a24,24,0,0,1-24-24h0a24,24,0,0,1,24-24h1a24,24,0,0,0,24-24V247a24,24,0,0,0-24-24h-1a24,24,0,0,1-24-24h0a24,24,0,0,1,24-24h55a24,24,0,0,1,24,24Z"/></g></g></svg>