<svg xmlns="http://www.w3.org/2000/svg" viewBox="0 0 512 384"><defs><style>.cls-1{fill:#fff;}.cls-2{fill:#f44336;}</style></defs><title>email</title><g id="Layer_2" data-name="Layer 2"><g id="Capa_1" data-name="Capa 1"><path class="cls-1" d="M329.44,337.39a1.26,1.26,0,0,1-.6,1.55c-27.06,14.05-54.66,19.39-87.61,19.39C159.6,358.33,90.42,298.6,90.42,203c0-102.53,71.17-191.13,181.67-191.13,86.6,0,144.84,60.73,144.84,143.85,0,74.66-41.81,118.45-88.6,118.45-19.62,0-37.8-13-36.88-42.5a1.25,1.25,0,0,0-1.24-1.29h0a1.23,1.23,0,0,0-1.06.6c-17.38,29-40.16,43.19-69.82,43.19-28.87,0-53.76-23.39-53.76-62.71,0-61.72,48.78-118,118-118,20.91,0,39.45,4.28,52.36,10a1.23,1.23,0,0,1,.71,1.37l-16.74,89.12c-7.47,37.83-1.49,55.25,14.93,55.75,25.39.49,53.76-33.35,53.76-91.09,0-72.17-43.31-123.93-120.45-123.93C187,34.81,118.79,99,118.79,200.05c0,83.12,54.25,134.39,127.91,134.39,27.8,0,53.68-5.73,73.9-16.73a1.24,1.24,0,0,1,1.76.66Zm-27.2-212.88a1.23,1.23,0,0,0-.88-1.42,86.42,86.42,0,0,0-23.8-3.17c-43.8,0-79.14,41.31-79.14,89.59,0,21.9,11,37.83,32.85,37.83,28.87,0,55.25-36.83,60.73-67.69Z"/><path class="cls-2" d="M456.5,0h-5.9A7.51,7.51,0,0,0,446,1.61L260.65,148a7.51,7.51,0,0,1-9.3,0L66,1.61A7.51,7.51,0,0,0,61.4,0H55.5A55.5,55.5,0,0,0,0,55.5v273A55.5,55.5,0,0,0,55.5,384h1a7.5,7.5,0,0,0,7.5-7.5V99.9A7.5,7.5,0,0,1,76.07,94L251.43,228.83a7.47,7.47,0,0,0,9.14,0L435.93,93.93A7.5,7.5,0,0,1,448,99.87V376.5a7.5,7.5,0,0,0,7.5,7.5h1A55.5,55.5,0,0,0,512,328.5V55.5A55.5,55.5,0,0,0,456.5,0Z"/></g></g></svg>