<svg xmlns="http://www.w3.org/2000/svg" xmlns:xlink="http://www.w3.org/1999/xlink" viewBox="0 0 384 480"><defs><style>.cls-1{fill:url(#linear-gradient);}</style><linearGradient id="linear-gradient" x1="380.22" y1="488.41" x2="-41.78" y2="5.41" gradientUnits="userSpaceOnUse"><stop offset="0" stop-color="#ff2ce0"/><stop offset="1" stop-color="#0014ff"/></linearGradient></defs><title>html</title><g id="Layer_2" data-name="Layer 2"><g id="Gradient"><path class="cls-1" d="M285.66,2.34A8,8,0,0,0,280,0H56A56.07,56.07,0,0,0,0,56V424a56.07,56.07,0,0,0,56,56H328a56.07,56.07,0,0,0,56-56V104a8,8,0,0,0-2.34-5.66Zm2.34,25L356.69,96H328a40,40,0,0,1-40-40ZM56,16H272V56a56.07,56.07,0,0,0,56,56h40V336H16V56A40,40,0,0,1,56,16ZM328,464H56a40,40,0,0,1-40-40V352H368v72A40,40,0,0,1,328,464ZM112,376v64a8,8,0,0,1-16,0V416H80v24a8,8,0,0,1-16,0V376a8,8,0,0,1,16,0v24H96V376a8,8,0,0,1,16,0Zm64,0a8,8,0,0,1-8,8h-8v56a8,8,0,0,1-16,0V384h-8a8,8,0,0,1,0-16h32A8,8,0,0,1,176,376Zm80,0v64a8,8,0,0,1-16,0V409.89l-8.85,17.69a8,8,0,0,1-10.73,3.57,7.91,7.91,0,0,1-3.57-3.57L208,409.89V440a8,8,0,0,1-16,0V376a8,8,0,0,1,15.15-3.58L224,406.11l16.85-33.69A8,8,0,0,1,256,376Zm64,64a8,8,0,0,1-8,8H280a8,8,0,0,1-8-8V376a8,8,0,0,1,16,0v56h24A8,8,0,0,1,320,440ZM82.34,197.66a8,8,0,0,1,0-11.32h0l48-48a8,8,0,0,1,11.32,11.32L99.31,192l42.35,42.34a8,8,0,0,1-11.32,11.32Zm160,36.68L284.69,192l-42.35-42.34a8,8,0,0,1,11.32-11.32l48,48a8,8,0,0,1,0,11.32h0l-48,48a8,8,0,0,1-11.32-11.32Zm-81.93,27.13,48-144a8,8,0,0,1,15.23,4.91c0,.05,0,.1,0,.15l-48,144a8,8,0,0,1-15.18-5.06Z"/></g></g></svg>