<svg xmlns="http://www.w3.org/2000/svg" xmlns:xlink="http://www.w3.org/1999/xlink" viewBox="0 0 1920 633"><defs><style>.cls-1{fill:url(#linear-gradient);}.cls-2{fill:url(#linear-gradient-2);}.cls-3{fill:url(#linear-gradient-3);}.cls-4{fill:url(#linear-gradient-4);}.cls-5{fill:url(#linear-gradient-5);}.cls-6{fill:url(#linear-gradient-6);}.cls-7{fill:url(#linear-gradient-7);}.cls-8{fill:url(#linear-gradient-8);}.cls-9{fill:url(#linear-gradient-9);}.cls-10{fill:url(#linear-gradient-10);}</style><linearGradient id="linear-gradient" x1="1825.34" y1="588.76" x2="1094.94" y2="-273.74" gradientUnits="userSpaceOnUse"><stop offset="0" stop-color="#ff2cdf"/><stop offset="0.07" stop-color="#f92be0"/><stop offset="0.17" stop-color="#e72ae2"/><stop offset="0.29" stop-color="#cb27e6"/><stop offset="0.41" stop-color="#a323eb"/><stop offset="0.55" stop-color="#6f1ef1"/><stop offset="0.69" stop-color="#3219f9"/><stop offset="0.79" stop-color="#0014ff"/></linearGradient><linearGradient id="linear-gradient-2" x1="794.1" y1="-165.35" x2="702.89" y2="734.28" gradientUnits="userSpaceOnUse"><stop offset="0" stop-color="#ff2cdf"/><stop offset="0.1" stop-color="#fa2ce0"/><stop offset="0.22" stop-color="#eb2ae2"/><stop offset="0.36" stop-color="#d228e5"/><stop offset="0.5" stop-color="#af24e9"/><stop offset="0.66" stop-color="#8220ef"/><stop offset="0.81" stop-color="#4b1bf6"/><stop offset="0.97" stop-color="#0c15fe"/><stop offset="1" stop-color="#0014ff"/></linearGradient><linearGradient id="linear-gradient-3" x1="1537.62" y1="-56.83" x2="776.5" y2="437.01" gradientUnits="userSpaceOnUse"><stop offset="0" stop-color="#ff2cdf"/><stop offset="0.09" stop-color="#f92be0"/><stop offset="0.22" stop-color="#e72ae2"/><stop offset="0.36" stop-color="#cb27e6"/><stop offset="0.52" stop-color="#a323eb"/><stop offset="0.69" stop-color="#6f1ef1"/><stop offset="0.87" stop-color="#3219f9"/><stop offset="1" stop-color="#0014ff"/></linearGradient><linearGradient id="linear-gradient-4" x1="1414.82" y1="-243.99" x2="1215.64" y2="638.04" xlink:href="#linear-gradient-3"/><linearGradient id="linear-gradient-5" x1="34.74" y1="125.94" x2="260.91" y2="568.38" xlink:href="#linear-gradient-3"/><linearGradient id="linear-gradient-6" x1="358.52" y1="-123.96" x2="499.73" y2="769.18" xlink:href="#linear-gradient-3"/><linearGradient id="linear-gradient-7" x1="269.19" y1="-157.28" x2="661.74" y2="592.4" gradientUnits="userSpaceOnUse"><stop offset="0" stop-color="#ff2cdf"/><stop offset="0.1" stop-color="#ef2ae1"/><stop offset="0.29" stop-color="#c426e6"/><stop offset="0.56" stop-color="#7f20ef"/><stop offset="0.89" stop-color="#2117fb"/><stop offset="1" stop-color="#0014ff"/></linearGradient><linearGradient id="linear-gradient-8" x1="1360.67" y1="-329.54" x2="599.56" y2="164.29" xlink:href="#linear-gradient-3"/><linearGradient id="linear-gradient-9" x1="739.88" y1="-184.26" x2="881.09" y2="708.89" xlink:href="#linear-gradient-3"/><linearGradient id="linear-gradient-10" x1="654.11" y1="-190.66" x2="880.27" y2="251.78" xlink:href="#linear-gradient-3"/></defs><title>Asset 2</title><g id="Layer_2" data-name="Layer 2"><g id="Layer_1-2" data-name="Layer 1"><path class="cls-1" d="M1827,176.29c-170.37,21.3-315.73,100.18-401.48,209.92-26.64,34.09-80.1,49.89-129,37.27A539,539,0,0,0,1162,406.67q-3.09,0-6.18,0A700.86,700.86,0,0,1,1264,512.86c31.26,38.4,90.36,57.53,147.84,48.07a531.59,531.59,0,0,1,86.4-7c89.1,0,171.59,21.79,239,58.84,51.52,28.3,121.25,26.9,170.13-4q6.21-3.93,12.56-7.71V92C1920,133.87,1880.61,169.59,1827,176.29Z"/><path class="cls-2" d="M776.64,156.72V98.79c-4,38.9-42,71.17-92.63,77.5C538.1,194.53,410.54,255,323.05,340.93A542.84,542.84,0,0,1,385,405.11c24.69,30.32,71.37,45.43,116.77,38A420.63,420.63,0,0,1,570,437.54c70.38,0,135.54,17.21,188.82,46.47,40.7,22.36,95.78,21.25,134.39-3.2,71.68-45.39,163-73,262.61-74.1-81.41-64.58-180.35-115.94-290.89-149.51C811.53,241,776.64,201,776.64,156.72Z"/><path class="cls-3" d="M777,0V92a64.35,64.35,0,0,1-.36,6.82v57.93c0,44.29,34.89,84.26,88.29,100.48,110.54,33.57,209.48,84.93,290.89,149.51q3.09,0,6.18,0a539,539,0,0,1,134.51,16.81c48.92,12.62,102.38-3.18,129-37.27,85.75-109.74,231.11-188.62,401.48-209.92,53.6-6.7,93-42.42,93-84.32V0Z"/><path class="cls-4" d="M777,0V92a64.35,64.35,0,0,1-.36,6.82v57.93c0,44.29,34.89,84.26,88.29,100.48,110.54,33.57,209.48,84.93,290.89,149.51q3.09,0,6.18,0a539,539,0,0,1,134.51,16.81c48.92,12.62,102.38-3.18,129-37.27,85.75-109.74,231.11-188.62,401.48-209.92,53.6-6.7,93-42.42,93-84.32V0Z"/><path class="cls-5" d="M0,123.79V407q9.45-.32,19-.32a538.5,538.5,0,0,1,134.51,16.81c48.92,12.62,102.38-3.18,129-37.27a462.19,462.19,0,0,1,40.52-45.28C254.67,280.64,168,233,69.74,203.16,27.56,190.35,0,158.77,0,123.79Z"/><path class="cls-6" d="M776.64,98.79V0H0V123.79c0,35,27.56,66.56,69.74,79.37C168,233,254.67,280.64,323.05,340.93,410.54,255,538.1,194.53,684,176.29,734.68,170,772.65,137.69,776.64,98.79Z"/><path class="cls-7" d="M776.64,98.79V0H0V123.79c0,35,27.56,66.56,69.74,79.37C168,233,254.67,280.64,323.05,340.93,410.54,255,538.1,194.53,684,176.29,734.68,170,772.65,137.69,776.64,98.79Z"/><path class="cls-8" d="M777,92V0h-.36V98.79A64.35,64.35,0,0,0,777,92Z"/><path class="cls-9" d="M777,92V0h-.36V98.79A64.35,64.35,0,0,0,777,92Z"/><path class="cls-10" d="M777,92V0h-.36V98.79A64.35,64.35,0,0,0,777,92Z"/></g></g></svg>