<svg xmlns="http://www.w3.org/2000/svg" viewBox="0 0 272 496"><defs><style>.cls-1{fill:#fff;}</style></defs><title>phone</title><g id="Layer_2" data-name="Layer 2"><g id="Layer_1-2" data-name="Layer 1"><g id="Smartphone"><path class="cls-1" d="M232,0H40A40,40,0,0,0,0,40V456a40,40,0,0,0,40,40H232a40,40,0,0,0,40-40V40A40,40,0,0,0,232,0ZM190.24,16h0a25.14,25.14,0,0,1-24.66,20.21H106.42A25.14,25.14,0,0,1,81.76,16H190.24Zm16.32,0H232a24,24,0,0,1,24,24V456a24,24,0,0,1-24,24H40a24,24,0,0,1-24-24V40A24,24,0,0,1,40,16H65.44"/><path class="cls-1" d="M88,448H40a8,8,0,0,0,0,16H88a8,8,0,0,0,0-16Z"/><path class="cls-1" d="M120,448h-8a8,8,0,0,0,0,16h8a8,8,0,0,0,0-16Z"/></g></g></g></svg>