<svg xmlns="http://www.w3.org/2000/svg" xmlns:xlink="http://www.w3.org/1999/xlink" viewBox="0 0 512 512"><defs><style>.cls-1{fill:url(#radial-gradient);}</style><radialGradient id="radial-gradient" cx="33" cy="47" r="694.21" gradientUnits="userSpaceOnUse"><stop offset="0" stop-color="#ff2ce0"/><stop offset="0.1" stop-color="#fa2ce1"/><stop offset="0.23" stop-color="#ec2ae2"/><stop offset="0.36" stop-color="#d328e5"/><stop offset="0.5" stop-color="#b225e9"/><stop offset="0.65" stop-color="#8721ef"/><stop offset="0.8" stop-color="#521cf5"/><stop offset="0.95" stop-color="#1516fc"/><stop offset="1" stop-color="#0014ff"/></radialGradient></defs><title>Asset 7</title><g id="Layer_2" data-name="Layer 2"><g id="Layer_1-2" data-name="Layer 1"><path class="cls-1" d="M310,190a10,10,0,1,0,10,10A10,10,0,0,0,310,190Z"/><path class="cls-1" d="M500.28,443.72,366.8,310.24A198.2,198.2,0,0,0,400,200C400,89.72,310.28,0,200,0S0,89.72,0,200,89.72,400,200,400a198.15,198.15,0,0,0,110.24-33.2l36.89,36.9h0l96.57,96.57a40,40,0,1,0,56.56-56.56Zm-194.74-98h0A178.42,178.42,0,0,1,200,380c-99.25,0-180-80.75-180-180S100.75,20,200,20s180,80.75,180,180a178.47,178.47,0,0,1-34.27,105.54A181.13,181.13,0,0,1,305.54,345.73Zm21,9.06a200.36,200.36,0,0,0,28.27-28.27l28.37,28.37a241.92,241.92,0,0,1-28.27,28.27ZM486.14,486.14a20,20,0,0,1-28.28,0l-88.79-88.8a263.84,263.84,0,0,0,28.27-28.27l88.8,88.79a20,20,0,0,1,0,28.28Z"/><path class="cls-1" d="M200,40C111.78,40,40,111.78,40,200s71.78,160,160,160,160-71.77,160-160S288.23,40,200,40Zm0,300c-77.2,0-140-62.8-140-140S122.8,60,200,60s140,62.8,140,140S277.2,340,200,340Z"/><path class="cls-1" d="M312.07,157.07A120.19,120.19,0,0,0,200,80a10,10,0,0,0,0,20,100.69,100.69,0,0,1,93.4,64.25,10,10,0,1,0,18.67-7.18Z"/></g></g></svg>