<svg xmlns="http://www.w3.org/2000/svg" viewBox="0 0 512.75 512.75"><defs><style>.cls-1{fill:none;stroke:#01d23f;stroke-miterlimit:10;stroke-width:20px;}.cls-2{fill:#01d23f;}</style></defs><title>wa</title><g id="Layer_2" data-name="Layer 2"><g id="Capa_1" data-name="Capa 1"><path class="cls-1" d="M256.44,10h-.13C120.47,10,10,120.5,10,256.38a244.55,244.55,0,0,0,44.47,141,8.4,8.4,0,0,1,1.06,7.5L31.47,476.59A8.4,8.4,0,0,0,42,487.26l75.07-24a8.42,8.42,0,0,1,7.1.9,244.23,244.23,0,0,0,132.28,38.59c135.84,0,246.31-110.53,246.31-246.37S392.28,10,256.44,10Z"/><path class="cls-2" d="M399.8,357.91c-5.95,16.79-29.54,30.71-48.35,34.77-12.88,2.74-29.69,4.93-86.3-18.54-72.4-30-119-103.57-122.66-108.34s-29.26-39-29.26-74.31,18-52.57,25.19-60c6-6.06,15.77-8.83,25.2-8.83,3,0,5.79.15,8.25.27,7.24.31,10.87.74,15.64,12.17,6,14.32,20.42,49.67,22.15,53.31s3.51,8.56,1,13.33c-2.31,4.93-4.34,7.12-8,11.31S195.64,220.47,192,225c-3.33,3.91-7.08,8.1-2.89,15.34,4.18,7.08,18.66,30.7,40,49.68,27.5,24.48,49.8,32.3,57.77,35.63,5.95,2.46,13,1.88,17.37-2.74,5.52-5.95,12.32-15.8,19.25-25.5,4.93-7,11.15-7.83,17.68-5.36,6.65,2.31,41.85,19.71,49.09,23.31s12,5.36,13.77,8.41S405.74,341.1,399.8,357.91Z"/></g></g></svg>